<?xml version="1.0" encoding="UTF-8" standalone="no"?>
<!-- Created with Inkscape (http://www.inkscape.org/) -->

<svg
   width="64"
   height="64"
   viewBox="0 0 16.933333 16.933333"
   version="1.1"
   id="svg1"
   xml:space="preserve"
   inkscape:version="1.3.2 (091e20ef0f, 2023-11-25, custom)"
   sodipodi:docname="icon.svg"
   xmlns:inkscape="http://www.inkscape.org/namespaces/inkscape"
   xmlns:sodipodi="http://sodipodi.sourceforge.net/DTD/sodipodi-0.dtd"
   xmlns="http://www.w3.org/2000/svg"
   xmlns:svg="http://www.w3.org/2000/svg"><sodipodi:namedview
     id="namedview1"
     pagecolor="#ffffff"
     bordercolor="#000000"
     borderopacity="0.25"
     inkscape:showpageshadow="2"
     inkscape:pageopacity="0.0"
     inkscape:pagecheckerboard="0"
     inkscape:deskcolor="#d1d1d1"
     inkscape:document-units="mm"
     inkscape:zoom="11.313709"
     inkscape:cx="33.67596"
     inkscape:cy="32.836271"
     inkscape:window-width="1920"
     inkscape:window-height="1011"
     inkscape:window-x="0"
     inkscape:window-y="32"
     inkscape:window-maximized="1"
     inkscape:current-layer="layer1" /><defs
     id="defs1" /><g
     inkscape:label="Layer 1"
     inkscape:groupmode="layer"
     id="layer1"><path
       style="fill:none;stroke:#000000;stroke-width:0.666533;stroke-linecap:round;stroke-linejoin:round;stroke-dasharray:none;stroke-opacity:1"
       d="M 1.6742249,8.3132441 1.485135,12.255474"
       id="path4" /><path
       style="fill:none;stroke:#000000;stroke-width:0.666533;stroke-linecap:round;stroke-linejoin:round;stroke-dasharray:none;stroke-opacity:1"
       d="m 1.515723,8.8922249 c 0,0 2.6995772,-0.6125389 2.7642018,0.7823926 0.043631,0.9419365 -1.2799029,1.4430815 -3.1171014,2.2538505"
       id="path5"
       sodipodi:nodetypes="csc" /><path
       style="fill:none;stroke:#000000;stroke-width:0.666533;stroke-linecap:round;stroke-linejoin:round;stroke-dasharray:none;stroke-opacity:1"
       d="m 4.0361736,10.791462 c 0,0 0.7230883,0.535274 1.3257017,0.03372 0.6026132,-0.501563 0.3231479,-0.79905 0.173899,-0.8228 -0.5724613,-0.091097 -1.1118986,0.275092 -1.135342,0.550128 -0.021413,0.25076 0.0329,0.846213 0.3106351,1.008741 0.3886642,0.227432 1.1029353,0.121073 1.1029353,0.121073"
       id="path6"
       sodipodi:nodetypes="cssssc" /><path
       style="fill:none;stroke:#000000;stroke-width:0.666533;stroke-linecap:round;stroke-linejoin:round;stroke-dasharray:none;stroke-opacity:1"
       d="m 6.75363,10.106411 c 0,0 0.034109,1.586406 0.3974537,1.586406 0.363354,0 0.4894744,-1.631914 0.7629315,-1.7239177"
       id="path7"
       sodipodi:nodetypes="csc" /><path
       style="fill:none;stroke:#000000;stroke-width:0.606982;stroke-linecap:round;stroke-linejoin:round;stroke-dasharray:none;stroke-opacity:1"
       d="m 8.428256,8.9430776 h 2.698026"
       id="path8" /><path
       style="fill:none;stroke:#000000;stroke-width:0.606982;stroke-linecap:round;stroke-linejoin:round;stroke-dasharray:none;stroke-opacity:1"
       d="M 9.7580685,9.0663186 V 11.706155"
       id="path9"
       sodipodi:nodetypes="cc" /><path
       style="fill:none;stroke:#000000;stroke-width:0.606982;stroke-linecap:round;stroke-linejoin:round;stroke-dasharray:none;stroke-opacity:1"
       d="m 12.965896,8.670978 c 0,0 -0.08896,1.364082 -0.08408,2.046959 0.0028,0.383395 0.06366,1.148455 0.06366,1.148455"
       id="path10"
       sodipodi:nodetypes="csc" /><path
       style="fill:none;stroke:#000000;stroke-width:0.606982;stroke-linecap:round;stroke-linejoin:round;stroke-dasharray:none;stroke-opacity:1"
       d="m 13.982423,8.657514 c 0,0 0.221932,1.898704 0.114641,3.172451 -0.01077,0.12689 0.15717,0.348211 0.15717,0.348211"
       id="path11"
       sodipodi:nodetypes="csc" /><path
       style="fill:none;stroke:#000000;stroke-width:0.606982;stroke-linecap:round;stroke-linejoin:round;stroke-dasharray:none;stroke-opacity:1"
       d="m 15.744301,9.5441287 c -0.209727,0.4899263 -1.418233,1.0581323 -1.418233,1.0581323 l 1.474218,1.098691"
       id="path12"
       sodipodi:nodetypes="ccc" /><path
       style="fill:none;stroke:#000000;stroke-width:0.606982;stroke-linecap:round;stroke-linejoin:round;stroke-dasharray:none;stroke-opacity:1"
       d="m 11.263424,10.518244 c 0,0 -1.017652,0.610042 -0.532345,0.990024 0.485307,0.379981 0.730779,-0.8299 0.662983,-0.980355 -0.0678,-0.150448 0.235327,0.792271 0.749185,1.011296"
       id="path13" /><path
       style="fill:none;stroke:#000000;stroke-width:0.279759;stroke-linecap:round;stroke-linejoin:round;stroke-dasharray:none;stroke-opacity:1"
       d="m 3.8002574,5.4453505 c 0,0 -0.4861267,0.508183 -0.8652188,0.7193082 0.3402813,0.1153696 0.9532868,0.5133864 0.9532868,0.5133864"
       id="path1"
       sodipodi:nodetypes="ccc" /><path
       style="fill:none;stroke:#000000;stroke-width:0.279759;stroke-linecap:round;stroke-linejoin:round;stroke-dasharray:none;stroke-opacity:1"
       d="m 5.2672955,5.3361833 c 0,0 -0.5686605,0.9478947 -0.757044,1.1097448 -0.2446075,0.2101567 -0.301667,0.3412841 -0.301667,0.3412841"
       id="path2"
       sodipodi:nodetypes="csc" /><path
       style="fill:none;stroke:#000000;stroke-width:0.279759;stroke-linecap:round;stroke-linejoin:round;stroke-dasharray:none;stroke-opacity:1"
       d="m 5.7624008,5.4245533 c 0,0 0.6519907,0.3317223 1.0441192,0.591946 C 6.3398919,6.2298069 5.714491,6.6988412 5.714491,6.6988412"
       id="path3"
       sodipodi:nodetypes="ccc" /><path
       id="rect13"
       style="fill:none;stroke:#000000;stroke-width:0.279759;stroke-linecap:round;stroke-linejoin:round;stroke-dasharray:none;stroke-opacity:1"
       d="m 2.2339859,4.4844725 c -0.2037166,0 -0.3677312,0.1640145 -0.3677312,0.3677307 v 2.2697702 c 0,0.2037174 0.1640146,0.3677319 0.3677312,0.3677319 h 3.6417955 l 1.31356,1.1479979 -0.4267431,-1.1479979 h 0.6043246 c 0.2037174,0 0.3677319,-0.1640145 0.3677319,-0.3677319 V 4.8522032 c 0,-0.2037162 -0.1640145,-0.3677307 -0.3677319,-0.3677307 z" /></g></svg>
